<?xml version="1.0" encoding="UTF-8"?>
<svg id="Layer_12" data-name="Layer 12" xmlns="http://www.w3.org/2000/svg" viewBox="0 0 400 400">
  <defs>
    <style>
      .cls-1 {
        fill: #ce1417;
        stroke: #fff;
        stroke-miterlimit: 10;
        stroke-width: 7px;
      }
    </style>
  </defs>
  <path class="cls-1" d="m204.8,300.11h62.18s0-68.04,0-68.04c0-7.27-5.89-13.16-13.16-13.16h-49.02V39.33c0-3.43-2.78-6.21-6.21-6.21h-8.07c-3.43,0-6.21,2.78-6.21,6.21v179.59h-49.02c-7.27,0-13.16,5.89-13.16,13.16v68.04h82.66Z"/>
  <path class="cls-1" d="m127.02,300.11s-5.12,51.67,1.71,54.11,14.14-54.11,14.14-54.11c0,0-7.56,59.47-3.66,57.52s16.58-23.12,15.85-57.52c0,0-9.02,77.9,1.1,60.33,10.24-17.8,13.29-60.33,13.29-60.33,0,0-8.53,84.01,5.61,63.45s7.56-63.45,7.56-63.45c0,0-.73,65.32,7.07,63.37,7.8-1.95,11.7-63.37,11.7-63.37,0,0-3.66,62.89,6.58,62.16,10.24-.73,7.8-62.16,7.8-62.16,0,0-1.22,64.59,5.12,65.08s8.53-65.08,8.53-65.08c0,0-8.29,65.08,6.34,63.37,14.63-1.71,9.27-63.37,9.27-63.37,0,0-4.39,69.52,6.58,66.69,10.97-2.83,9.02-66.69,9.02-66.69H127.02Z"/>
  <rect class="cls-1" x="122.14" y="243.03" width="144.83" height="20.76"/>
</svg>