<svg id="Layer_12" data-name="Layer 12" xmlns="http://www.w3.org/2000/svg" viewBox="0 0 400 400"><defs><style>.cls-1{fill:none;stroke:#FFFFFF;stroke-miterlimit:10;stroke-width:7px}</style></defs><path class="cls-1" d="M204.8 300.11h62.18v-68.04c0-7.27-5.89-13.16-13.16-13.16H204.8V39.33a6.21 6.21 0 0 0-6.21-6.21h-8.07a6.21 6.21 0 0 0-6.21 6.21v179.58h-49.02c-7.27 0-13.16 5.89-13.16 13.16v68.04h82.66zM127.02 300.11s-5.12 51.67 1.71 54.11 14.14-54.11 14.14-54.11-7.56 59.47-3.66 57.52 16.58-23.12 15.85-57.52c0 0-9.02 77.9 1.1 60.33 10.24-17.8 13.29-60.33 13.29-60.33s-8.53 84.01 5.61 63.45 7.56-63.45 7.56-63.45-.73 65.32 7.07 63.37c7.8-1.95 11.7-63.37 11.7-63.37s-3.66 62.89 6.58 62.16c10.24-.73 7.8-62.16 7.8-62.16s-1.22 64.59 5.12 65.08 8.53-65.08 8.53-65.08-8.29 65.08 6.34 63.37c14.63-1.71 9.27-63.37 9.27-63.37s-4.39 69.52 6.58 66.69c10.97-2.83 9.02-66.69 9.02-66.69H127.02z"/><path class="cls-1" d="M122.14 243.03h144.83v20.76H122.14z"/></svg>