<?xml version="1.0" encoding="UTF-8"?>
<svg id="Layer_6" data-name="Layer 6" xmlns="http://www.w3.org/2000/svg" viewBox="0 0 400 400">
  <defs>
    <style>
      .cls-1 {
        fill: #1d1d1b;
      }
    </style>
  </defs>
  <g>
    <path class="cls-1" d="M104.72,310.5V94.76c-2.48,.77-5.11,1.18-7.83,1.18-3.85,0-7.5-.83-10.8-2.31l2.79,216.92c2.53-.8,5.22-1.24,8.01-1.24s5.36,.41,7.83,1.18Z"/>
    <path class="cls-1" d="M122.59,63.27c.48,2,.74,4.08,.74,6.23,0,5.83-1.89,11.21-5.08,15.58l177.14,32.21v188.44l-174.08,19.88c1.3,3.13,2.02,6.56,2.02,10.15,0,2.63-.39,5.17-1.1,7.57l192.16-19.08V98.93L122.59,63.27Z"/>
  </g>
  <circle class="cls-1" cx="96.41" cy="67.87" r="20.43"/>
  <circle class="cls-1" cx="95.41" cy="336.92" r="20.43"/>
</svg>