<?xml version="1.0" encoding="UTF-8"?>
<svg id="Layer_21" data-name="Layer 21" xmlns="http://www.w3.org/2000/svg" viewBox="0 0 400 400">
  <defs>
    <style>
      .cls-1 {
        fill: #282828;
      }

      .cls-2 {
        fill: #3c3c3b;
      }

      .cls-3 {
        fill: #878787;
      }

      .cls-4 {
        fill: #1d1d1b;
      }
    </style>
  </defs>
  <path class="cls-3" d="m263.88,259.4H115.73l-32.4-75.83C50.17,105.99,107.09,19.78,191.46,19.78h0c86.26,0,143.16,89.79,106.34,167.79l-33.91,71.84Z"/>
  <circle class="cls-1" cx="189.81" cy="259.4" r="85"/>
  <polygon class="cls-4" points="252.92 326.29 126.34 326.29 116.58 270.67 263.16 269.92 252.92 326.29"/>
  <circle class="cls-4" cx="189.81" cy="259.4" r="74.09"/>
  <circle class="cls-1" cx="189.81" cy="318.04" r="64.01"/>
  <path class="cls-2" d="m115.73,261.75c0-16.23,9.09-30.34,21.08-44.21,14.13-16.33,33.89-22.22,53-22.22,20.87,0,42.53,8.15,56.77,26.86,9.86,12.97,17.32,25.73,17.32,40.2v-2.97c0-40.92-33.17-74.09-74.08-74.09s-74.08,33.17-74.08,74.09v2.35Z"/>
</svg>