<?xml version="1.0" encoding="UTF-8"?>
<svg id="Layer_11" data-name="Layer 11" xmlns="http://www.w3.org/2000/svg" viewBox="0 0 400 400">
  <defs>
    <style>
      .cls-1 {
        fill: none;
        stroke: #1d1d1b;
        stroke-miterlimit: 10;
        stroke-width: 7px;
      }
    </style>
  </defs>
  <polyline class="cls-1" points="144.28 248.31 144.28 248.28 144.28 201.5 144.28 154.72 144.28 154.69"/>
  <polyline class="cls-1" points="114.5 159.74 114.5 159.74 114.5 201.5 114.5 243.26 114.5 243.26"/>
  <polyline class="cls-1" points="49.17 217.94 49.12 201.5 49.17 185.06"/>
  <path class="cls-1" d="M215.84,155.45c-.28-.11-.44-.17-.44-.17,0,0-44.73-.76-71.11-.56-8.61,.06-15.26,.23-17.78,.56-2.59,.34-6.93,2.05-12,4.47-14.93,7.11-35.28,21.82-38.22,22.65-9.56,2.67-27.11,2.67-27.11,2.67v-2.67c-28.44,0-27.11,6.67-27.11,6.67v12.44s0,12.44,0,12.44c0,0-1.33,6.67,27.11,6.67v-2.67s17.56,0,27.11,2.67c2.95,.82,23.29,15.54,38.22,22.65,5.07,2.41,9.41,4.13,12,4.47,2.51,.33,9.17,.49,17.78,.56l71.56,.03c3.96-1.49,34.08-13.27,50.67-10.37,17.78,3.11,91.11,16.89,95.56,2.67,4.44-14.22-4.89-26.22-4.89-26.22,0,0,12.44-1.33,12.89-12.89-.44-11.56-12.89-12.89-12.89-12.89,0,0,9.33-12,4.89-26.22-4.44-14.22-77.78-.44-95.56,2.67-16.59,2.9-46.71-8.12-50.67-9.61"/>
  <line class="cls-1" x1="215.84" y1="248.31" x2="215.84" y2="155.45"/>
</svg>