<?xml version="1.0" encoding="UTF-8"?>
<svg id="Layer_10" data-name="Layer 10" xmlns="http://www.w3.org/2000/svg" viewBox="0 0 400 400">
  <defs>
    <style>
      .cls-1 {
        fill: #000000
        stroke: #1d1d1b;
        stroke-miterlimit: 10;
        stroke-width: 7px;
      }
    </style>
  </defs>
  <polyline class="cls-1" points="251.77 153.19 251.77 153.22 251.77 200 251.77 246.78 251.77 246.81"/>
  <polyline class="cls-1" points="281.55 241.76 281.55 241.76 281.55 200 281.55 158.24 281.55 158.24"/>
  <polyline class="cls-1" points="346.88 183.56 346.94 200 346.88 216.44"/>
  <path class="cls-1" d="M180.22,246.81v-.76c-3.96-1.49-34.08-12.51-50.67-9.61-17.78,3.11-91.11,16.89-95.56,2.67-4.44-14.22,4.89-26.22,4.89-26.22,0,0-12.44-1.33-12.89-12.89,.44-11.56,12.89-12.89,12.89-12.89,0,0-9.33-12-4.89-26.22,4.44-14.22,77.78-.44,95.56,2.67,16.59,2.9,46.71-8.12,50.67-9.61,.28-.11,.44-.17,.44-.17,0,0,44.73-.76,71.11-.56,8.61,.06,15.26,.23,17.78,.56,2.59,.34,6.93,2.05,12,4.47,14.93,7.11,35.28,21.82,38.22,22.65,9.56,2.67,27.11,2.67,27.11,2.67v-2.67c28.44,0,27.11,6.67,27.11,6.67v24.89s1.33,6.67-27.11,6.67v-2.67s-17.56,0-27.11,2.67c-2.95,.82-23.29,15.54-38.22,22.65-5.07,2.41-9.41,4.13-12,4.47-2.51,.33-9.17,.49-17.78,.56-26.38,.2-71.11-.56-71.11-.56,0,0-.16-.06-.44-.17v.76Z"/>
  <line class="cls-1" x1="180.22" y1="246.81" x2="180.22" y2="153.78"/>
</svg>