<?xml version="1.0" encoding="UTF-8"?>
<svg id="Layer_5" data-name="Layer 5" xmlns="http://www.w3.org/2000/svg" viewBox="0 0 400 400">
  <defs>
    <style>
      .cls-1 {
        opacity: .85;
      }

      .cls-1, .cls-2 {
        fill: #1d1d1b;
      }
    </style>
  </defs>
  <path class="cls-2" d="M280.67,187.41v70s86.67-2,101.33-24.67v-70.67s-12.67,22-101.33,25.33Z"/>
  <path class="cls-1" d="M382,149.41s.08-28.67-176.29-31.33c-176.37-2.67-187.71,31.33-187.71,31.33,0,0,14.67,20.67,93.33,24v-39.33s53.33,53.33,53.33,53.33h106v-12s82,3.33,111.33-26Z"/>
  <path class="cls-2" d="M18,165.41v65.33s-1.33,16,105.33,24.67v26.67s58.94-58.94,58.94-58.94l-58-58v22.28s-70.28,4.67-106.28-22Z"/>
</svg>