<?xml version="1.0" encoding="UTF-8"?>
<svg id="Layer_20" data-name="Layer 20" xmlns="http://www.w3.org/2000/svg" viewBox="0 0 400 400">
  <defs>
    <style>
      .cls-1 {
        fill: #282828;
      }

      .cls-2 {
        fill: #3c3c3b;
      }

      .cls-3 {
        fill: #878787;
      }

      .cls-4 {
        fill: #1d1d1b;
      }
    </style>
  </defs>
  <rect class="cls-1" x="183.25" y="15.5" width="33.5" height="7" rx="3.5" ry="3.5"/>
  <rect class="cls-4" x="187.08" y="6" width="25.83" height="7" rx="3.5" ry="3.5"/>
  <g>
    <polygon class="cls-1" points="197.88 103.12 200 103.12 202.12 103.12 202.12 38.67 197.88 38.67 197.88 103.12"/>
    <path class="cls-1" d="m209.33,107.12h-3.21v3.21c0,1.77,1.44,3.21,3.21,3.21s3.21-1.44,3.21-3.21-1.44-3.21-3.21-3.21Z"/>
    <path class="cls-1" d="m187.46,110.33c0,1.77,1.44,3.21,3.21,3.21s3.21-1.44,3.21-3.21v-3.21h-3.21c-1.77,0-3.21,1.44-3.21,3.21Z"/>
  </g>
  <g>
    <path class="cls-2" d="m193.88,34.78h25.94c2.63,0,4.16-3.04,2.53-5.1-2.25-2.85-5.74-4.68-9.65-4.68h-25.39c-3.91,0-7.4,1.83-9.65,4.68-1.63,2.06-.09,5.1,2.53,5.1h13.69Z"/>
    <path class="cls-2" d="m263.17,88.24c-5.49-8.51-13.15-15.36-21.89-20.47-7.61-4.45-14.61-3.4-16.04-24.39-.18-2.65-2.4-4.71-5.06-4.71h-14.05v64.46h2.97c3.58,0,6.8,2.5,7.36,6.04.77,4.89-3.39,9.05-8.28,8.28-3.54-.56-6.04-3.78-6.04-7.36v-2.97s-2.12,0-2.12,0h-2.12v2.97c0,3.58-2.5,6.8-6.04,7.36-4.89.77-9.05-3.39-8.28-8.28.55-3.54,3.78-6.04,7.36-6.04h2.97s0-64.46,0-64.46h-14.05c-2.66,0-4.88,2.06-5.06,4.71-1.42,20.95-8.39,19.92-16.01,24.37-9.09,5.32-16.97,12.53-22.54,21.47-7.59,12.18-11.79,26.68-11.28,42.2,1.3,39.54,33.59,71.57,73.14,72.56,42.36,1.06,77.04-32.96,77.04-75.09,0-14.98-4.39-28.94-11.94-40.65Z"/>
  </g>
  <rect class="cls-3" x="188.33" y="218.11" width="23.33" height="165.85" rx="11.67" ry="11.67"/>
  <rect class="cls-3" x="288.32" y="194.28" width="23.33" height="205.78" rx="11.67" ry="11.67" transform="translate(-108.39 189.81) rotate(-30)"/>
  <rect class="cls-3" x="90.18" y="195.34" width="23.33" height="203.65" rx="11.67" ry="11.67" transform="translate(162.23 -11.11) rotate(30)"/>
  <rect class="cls-3" x="322.84" y="91.44" width="23.33" height="80" rx="11.67" ry="11.67" transform="translate(203.07 465.96) rotate(-90)"/>
  <rect class="cls-3" x="313.18" y="152.09" width="23.33" height="103.82" rx="11.67" ry="11.67" transform="translate(-14.24 383.33) rotate(-60)"/>
  <rect class="cls-3" x="57.04" y="91.44" width="23.33" height="80" rx="11.67" ry="11.67" transform="translate(-62.73 200.15) rotate(-90)"/>
  <rect class="cls-3" x="66.7" y="152.09" width="23.33" height="103.82" rx="11.67" ry="11.67" transform="translate(-59.11 373.87) rotate(-120)"/>
</svg>